<svg width="644" height="137" viewBox="0 0 644 137" fill="none" xmlns="http://www.w3.org/2000/svg">
<path d="M100.23 27.63L71.3497 30.65C68.7097 23.52 63.3497 19.94 55.2797 19.94C47.2097 19.94 41.1197 23.74 36.4997 31.34C31.8597 38.93 29.5697 47.06 29.5697 55.7C29.5697 60.71 31.2697 64.91 34.6997 68.29C38.1397 71.68 42.5097 73.36 47.8197 73.36H48.0897C54.1297 73.36 59.4397 71.89 64.0197 68.93L66.1497 59.27H48.2097L52.4797 40.44H96.7797L87.2597 82.84C72.4897 89.82 57.8497 93.31 43.3497 93.31C30.2697 93.31 19.8897 89.94 12.2297 83.21C4.55973 76.48 0.719727 67.03 0.719727 54.83C0.719727 44.68 3.16973 35.34 8.04973 26.84C12.9297 18.36 19.8097 11.76 28.6897 7.06C37.5597 2.35 47.7497 0 59.2297 0C81.6897 0 95.3397 9.21 100.23 27.63Z" fill="#FF5E00"/>
<path d="M158.46 0C172.92 0 183.56 3.68 190.34 11.04C197.12 18.4 200.51 27.46 200.51 38.22C200.51 42.36 199.88 47.09 198.63 52.4C197.37 57.71 194.96 63.22 191.37 68.89C187.79 74.58 183.14 79.4 177.42 83.37C171.69 87.32 166.19 89.96 160.93 91.3C155.66 92.63 150.08 93.31 144.16 93.31C130.6 93.31 120.03 90.04 112.43 83.51C104.83 77 101.03 67.84 101.03 56.06C101.03 49.91 101.97 43.91 103.85 38.07C105.74 32.23 108.52 26.71 112.28 21.51C116.02 16.32 120.61 11.98 126.07 8.47C131.53 4.97 136.91 2.67 142.2 1.6C147.47 0.53 152.9 0 158.46 0ZM145.97 72.74C151.63 72.74 156.43 70.7 160.38 66.65C164.34 62.59 167.22 57.46 169.03 51.29C170.84 45.11 171.75 40.72 171.75 38.1C171.75 32.31 170.2 27.94 167.11 24.98C164.03 22.02 160.08 20.55 155.28 20.55C149.93 20.55 145.32 22.4 141.46 26.12C137.61 29.83 134.69 34.79 132.75 40.95C130.81 47.13 129.83 52.39 129.83 56.74C129.83 61.32 131.27 65.15 134.12 68.18C136.96 71.22 140.91 72.73 145.97 72.73" fill="#FF5E00"/>
<path d="M346.85 27.63L317.96 30.65C315.32 23.52 309.97 19.94 301.9 19.94C293.83 19.94 287.74 23.74 283.11 31.34C278.5 38.93 276.18 47.06 276.18 55.7C276.18 60.71 277.9 64.91 281.34 68.29C284.75 71.68 289.13 73.36 294.45 73.36H294.71C300.75 73.36 306.05 71.89 310.64 68.93L312.79 59.27H294.85L299.11 40.44H343.42L333.9 82.84C319.14 89.82 304.49 93.31 289.99 93.31C276.89 93.31 266.53 89.94 258.86 83.21C251.2 76.48 247.36 67.03 247.36 54.83C247.36 44.66 249.79 35.34 254.68 26.84C259.54 18.36 266.44 11.76 275.31 7.06001C284.18 2.36001 294.36 0.0100098 305.84 0.0100098C328.3 0.0100098 341.97 9.22001 346.85 27.64" fill="#001F33"/>
<path d="M387.86 1.54004L367.66 91.76H341.17L361.45 1.54004H387.86Z" fill="#001F33"/>
<path d="M422.22 24.99C434.54 24.99 443.5 27.95 449.15 33.86C454.77 39.76 457.59 46.68 457.59 54.6C457.59 60.63 455.98 66.76 452.73 73C449.51 79.23 444.64 84.18 438.14 87.83C431.65 91.49 423.64 93.31 414.15 93.31C402.09 93.31 393.2 90.49 387.46 84.84C381.71 79.2 378.84 72.17 378.84 63.76C378.84 57.16 380.56 50.78 384 44.63C387.42 38.47 392.39 33.66 398.93 30.19C405.45 26.73 413.22 24.99 422.23 24.99M415.84 76.37C420.75 76.37 424.66 73.98 427.55 69.2C430.44 64.42 431.89 59.12 431.89 53.29C431.89 49.06 430.8 46.1 428.6 44.4C426.39 42.69 423.95 41.84 421.27 41.84C415.7 41.84 411.53 44.25 408.74 49.05C405.95 53.85 404.56 58.74 404.56 63.75C404.56 67.36 405.65 70.36 407.83 72.76C410.01 75.16 412.68 76.36 415.84 76.36" fill="#001F33"/>
<path d="M493.71 31.13C496.74 28.92 499.61 27.35 502.35 26.4C505.09 25.46 508.55 24.99 512.68 24.99C520.6 24.99 526.56 27.53 530.59 32.62C534.63 37.7001 536.66 44.2701 536.66 52.3101C536.66 62.6501 533.64 72.0601 527.57 80.55C521.53 89.05 513.55 93.3 503.62 93.3C493.69 93.3 485.77 89.21 480.81 81.04L478.29 91.76H453.74L473.94 1.55005H500.31L493.7 31.14L493.71 31.13ZM496.88 76.37C500.68 76.37 503.97 74.11 506.75 69.58C509.55 65.05 510.94 59.34 510.94 52.44C510.94 45.07 507.85 41.3601 501.67 41.3601C497.19 41.3601 493.58 43.81 490.85 48.71C488.14 53.62 486.77 59.0201 486.77 64.93C486.77 68.7101 487.78 71.56 489.84 73.49C491.9 75.41 494.24 76.37 496.87 76.37" fill="#001F33"/>
<path d="M615.29 75.02C611.44 81.51 606.43 86.17 600.22 89.03C594.04 91.88 586.27 93.31 576.95 93.31C563.4 93.31 553.74 90.4 548.02 84.6C542.3 78.79 539.44 71.68 539.44 63.28C539.44 57.46 540.78 51.97 543.45 46.81C546.14 41.67 549.75 37.35 554.34 33.87C558.91 30.38 563.42 28.03 567.87 26.81C572.32 25.61 577.51 25 583.48 25C596.31 25 605.5 27.64 611.08 32.94C616.64 38.24 619.42 44.74 619.42 52.45C619.42 54.99 618.85 59.37 617.68 65.56H565.28C566.01 74.29 570.14 78.66 577.66 78.66C582.75 78.66 586.81 76.69 589.84 72.75L615.29 75.03V75.02ZM593.27 53.42C593.57 52.52 593.72 51.27 593.72 49.66C593.72 46.33 592.68 43.83 590.58 42.13C588.49 40.42 585.9 39.57 582.84 39.57C579.61 39.57 576.63 40.73 573.9 43.05C571.19 45.37 569.11 48.83 567.69 53.42H593.27Z" fill="#001F33"/>
<path d="M244.64 40.48L240.23 59.26H201.89L206.3 40.48H244.64Z" fill="#001F33"/>
<path d="M10.14 123.96C7.68004 123.96 5.81004 125.9 5.81004 128.45C5.81004 131 7.68004 132.98 10.14 132.98C11.46 132.98 12.99 132.25 14.1 131.11L16.54 133.73C14.83 135.53 12.28 136.69 9.92004 136.69C5.12004 136.69 1.54004 133.18 1.54004 128.49C1.54004 123.8 5.21004 120.43 10.08 120.43C12.45 120.43 14.93 121.48 16.52 123.16L14.11 126.05C13.06 124.77 11.54 123.96 10.15 123.96H10.14Z" fill="#001F33"/>
<path d="M32.4503 133.13C34.2903 133.13 35.5703 131.88 35.5703 129.81V120.54H39.7403V129.81C39.7403 134.02 36.9203 136.69 32.4303 136.69C27.9403 136.69 25.0303 134.03 25.0303 129.81V120.54H29.2003V129.81C29.2003 131.86 30.5703 133.13 32.4503 133.13Z" fill="#001F33"/>
<path d="M55.3698 123.75C54.3698 123.75 53.7098 124.11 53.7098 124.84C53.7098 127.48 62.1098 125.98 62.1098 131.72C62.1098 134.97 59.2398 136.64 55.6898 136.64C53.0298 136.64 50.2498 135.66 48.3398 134.09L49.9598 130.83C51.5998 132.24 54.0798 133.24 55.7398 133.24C56.9698 133.24 57.7398 132.78 57.7398 131.94C57.7398 129.23 49.3398 130.87 49.3398 125.22C49.3398 122.24 51.8698 120.35 55.7098 120.35C58.0498 120.35 60.4198 121.08 62.0898 122.15L60.5198 125.45C58.8398 124.49 56.6998 123.74 55.3798 123.74L55.3698 123.75Z" fill="#001F33"/>
<path d="M83.4996 120.54V123.98H78.7196V136.5H74.5496V123.98H69.8096V120.54H83.4896H83.4996Z" fill="#001F33"/>
<path d="M108.38 128.51C108.38 133.18 104.69 136.68 99.7501 136.68C94.8101 136.68 91.1201 133.17 91.1201 128.51C91.1201 123.85 94.8101 120.43 99.7501 120.43C104.69 120.43 108.38 123.89 108.38 128.51ZM95.4001 128.53C95.4001 131.12 97.4301 133.13 99.7901 133.13C102.15 133.13 104.09 131.13 104.09 128.53C104.09 125.93 102.18 123.98 99.7901 123.98C97.4001 123.98 95.4001 125.94 95.4001 128.53Z" fill="#001F33"/>
<path d="M121.99 120.54L126.22 129.85L130.45 120.54H135V136.5H131.31L131.29 126.39L127.58 134.9H124.85L121.14 126.39V136.5H117.43V120.54H121.98H121.99Z" fill="#001F33"/>
<path d="M172.66 128.51C172.66 133.27 169.18 136.5 164.01 136.5H157.29V120.54H164.17C169.22 120.54 172.66 123.77 172.66 128.51ZM168.4 128.55C168.4 125.8 166.6 123.93 164.07 123.93H161.45V133.13H164.27C166.68 133.13 168.39 131.29 168.39 128.55H168.4Z" fill="#001F33"/>
<path d="M194.31 120.54V123.86H185.89V126.84H193.49V130.16H185.89V133.17H194.54V136.49H181.72V120.53H194.31V120.54Z" fill="#001F33"/>
<path d="M206.96 120.54L210.94 132.08L214.95 120.54H219.23L212.99 136.5H208.66L202.47 120.54H206.96Z" fill="#001F33"/>
<path d="M240.31 120.54V123.86H231.89V126.84H239.49V130.16H231.89V133.17H240.54V136.49H227.72V120.53H240.31V120.54Z" fill="#001F33"/>
<path d="M254.24 120.54V132.95H261V136.5H250.07V120.54H254.24Z" fill="#001F33"/>
<path d="M286.11 128.51C286.11 133.18 282.42 136.68 277.48 136.68C272.54 136.68 268.85 133.17 268.85 128.51C268.85 123.85 272.54 120.43 277.48 120.43C282.42 120.43 286.11 123.89 286.11 128.51ZM273.13 128.53C273.13 131.12 275.16 133.13 277.52 133.13C279.88 133.13 281.82 131.13 281.82 128.53C281.82 125.93 279.91 123.98 277.52 123.98C275.13 123.98 273.13 125.94 273.13 128.53Z" fill="#001F33"/>
<path d="M308.59 126.14C308.59 129.9 306.24 132.08 302.17 132.08H299.32V136.5H295.15V120.54H302.16C306.23 120.54 308.58 122.59 308.58 126.14H308.59ZM304.63 126.28C304.63 124.71 303.65 123.87 301.97 123.87H299.33V128.76H301.97C303.65 128.76 304.63 127.89 304.63 126.28Z" fill="#001F33"/>
<path d="M322.18 120.54L326.41 129.85L330.64 120.54H335.19V136.5H331.5L331.48 126.39L327.77 134.9H325.04L321.33 126.39V136.5H317.62V120.54H322.17H322.18Z" fill="#001F33"/>
<path d="M357.87 120.54V123.86H349.45V126.84H357.05V130.16H349.45V133.17H358.1V136.49H345.28V120.53H357.87V120.54Z" fill="#001F33"/>
<path d="M371.3 120.54L378.54 130.15V120.54H382.41V136.5H378.77L371.53 126.94V136.5H367.64V120.54H371.31H371.3Z" fill="#001F33"/>
<path d="M404.79 120.54V123.98H400.01V136.5H395.84V123.98H391.1V120.54H404.78H404.79Z" fill="#001F33"/>
<path d="M431.49 123.75C430.49 123.75 429.83 124.11 429.83 124.84C429.83 127.48 438.23 125.98 438.23 131.72C438.23 134.97 435.36 136.64 431.81 136.64C429.15 136.64 426.37 135.66 424.46 134.09L426.08 130.83C427.72 132.24 430.2 133.24 431.86 133.24C433.09 133.24 433.86 132.78 433.86 131.94C433.86 129.23 425.46 130.87 425.46 125.22C425.46 122.24 427.99 120.35 431.83 120.35C434.17 120.35 436.54 121.08 438.21 122.15L436.64 125.45C434.96 124.49 432.82 123.74 431.5 123.74L431.49 123.75Z" fill="#001F33"/>
<path d="M451.47 120.54V136.5H447.3V120.54H451.47Z" fill="#001F33"/>
<path d="M465.22 120.54L472.46 130.15V120.54H476.33V136.5H472.69L465.45 126.94V136.5H461.56V120.54H465.23H465.22Z" fill="#001F33"/>
<path d="M494.01 123.96C491.55 123.96 489.68 125.9 489.68 128.45C489.68 131 491.55 132.98 494.01 132.98C495.33 132.98 496.86 132.25 497.97 131.11L500.41 133.73C498.7 135.53 496.15 136.69 493.79 136.69C488.99 136.69 485.41 133.18 485.41 128.49C485.41 123.8 489.08 120.43 493.95 120.43C496.32 120.43 498.8 121.48 500.39 123.16L497.98 126.05C496.93 124.77 495.41 123.96 494.02 123.96H494.01Z" fill="#001F33"/>
<path d="M521.76 120.54V123.86H513.34V126.84H520.94V130.16H513.34V133.17H521.99V136.49H509.17V120.53H521.76V120.54Z" fill="#001F33"/>
<path d="M550.55 125.16C550.55 124.29 549.89 123.79 548.73 123.79C547.43 123.79 545.79 124.56 544.31 125.82L542.74 122.75C544.79 121.25 547.02 120.34 549.34 120.34C552.57 120.34 554.92 122.02 554.92 124.55C554.92 126.28 553.6 128.08 551.82 129.88L548.54 133.16H555.37V136.51H543.21L543.19 133.76L549 127.8C549.89 126.89 550.55 125.86 550.55 125.18V125.16Z" fill="#001F33"/>
<path d="M576.48 128.51C576.48 133.72 574.25 136.61 570.24 136.61C566.23 136.61 563.98 133.72 563.98 128.51C563.98 123.3 566.19 120.43 570.24 120.43C574.29 120.43 576.48 123.3 576.48 128.51ZM567.97 128.51C567.97 132.15 568.63 133.68 570.25 133.68C571.87 133.68 572.5 132.16 572.5 128.51C572.5 124.86 571.84 123.34 570.25 123.34C568.66 123.34 567.97 124.84 567.97 128.51Z" fill="#001F33"/>
<path d="M597.51 128.51C597.51 133.72 595.28 136.61 591.27 136.61C587.26 136.61 585.01 133.72 585.01 128.51C585.01 123.3 587.22 120.43 591.27 120.43C595.32 120.43 597.51 123.3 597.51 128.51ZM589 128.51C589 132.15 589.66 133.68 591.28 133.68C592.9 133.68 593.53 132.16 593.53 128.51C593.53 124.86 592.87 123.34 591.28 123.34C589.69 123.34 589 124.84 589 128.51Z" fill="#001F33"/>
<path d="M612.3 126.3C616.06 126.3 618.49 128.28 618.49 131.13C618.49 134.5 615.92 136.69 611.98 136.69C609.84 136.69 607.38 135.89 605.65 134.69L607.31 131.46C608.56 132.78 610.02 133.46 611.48 133.46C613.1 133.46 614.01 132.73 614.01 131.43C614.01 130.22 613.1 129.54 611.51 129.54C610.67 129.54 608.05 129.56 607.05 129.63V120.52H617.77V123.89H610.87V126.33C611.21 126.31 611.99 126.31 612.3 126.31V126.3Z" fill="#001F33"/>
<path d="M632.12 1.27002V3.28002H629.33V10.6H626.89V3.28002H624.12V1.27002H632.12Z" fill="#001F33"/>
<path d="M635.89 1.27002L638.37 6.71002L640.84 1.27002H643.5V10.6H641.34V4.69002L639.16 9.67002H637.56L635.39 4.69002V10.6H633.22V1.27002H635.88H635.89Z" fill="#001F33"/>
</svg>
