<svg width="208" height="44" viewBox="0 0 208 44" fill="none" xmlns="http://www.w3.org/2000/svg">
<g clip-path="url(#clip0_2011_4)">
<path d="M32.1454 8.89181L22.8101 9.86645C21.9525 7.57111 20.2229 6.4199 17.6215 6.4199C15.0697 6.4199 13.0496 7.64173 11.5539 10.0854C10.0512 12.5291 9.31402 15.1422 9.31402 17.9249C9.31402 19.5352 9.86691 20.8912 10.9727 21.9788C12.0855 23.0665 13.4961 23.6103 15.2115 23.6103H15.2965C17.2458 23.6103 18.9612 23.1371 20.4426 22.1836L21.1302 19.0761H15.332L16.7142 13.0093H31.0255L27.9492 26.6613C23.1787 28.9072 18.4438 30.0302 13.7584 30.0302C9.53376 30.0302 6.181 28.9425 3.70718 26.7814C1.24045 24.6202 0 21.5762 0 17.6494C0 14.3795 0.793889 11.3708 2.36749 8.63756C3.94109 5.90433 6.16682 3.77849 9.03758 2.26709C11.8942 0.755698 15.1902 0 18.8974 0C26.1558 0 30.5647 2.96629 32.1454 8.89181Z" fill="#FF5800"/>
<path d="M50.9659 0C55.6371 0 59.0749 1.18652 61.2652 3.55249C63.4555 5.91846 64.5541 8.84238 64.5541 12.3031C64.5541 13.6379 64.3486 15.1563 63.9445 16.8655C63.5334 18.5746 62.7608 20.3474 61.5983 22.1766C60.4429 24.0058 58.9402 25.5596 57.0902 26.8379C55.2401 28.1092 53.461 28.9637 51.7598 29.3875C50.0586 29.8183 48.2511 30.0302 46.3372 30.0302C41.9566 30.0302 38.5401 28.9779 36.0804 26.8803C33.6208 24.7827 32.3945 21.8376 32.3945 18.0449C32.3945 16.0674 32.6993 14.1323 33.3018 12.2536C33.9114 10.375 34.8116 8.59519 36.0237 6.92135C37.2358 5.25458 38.7173 3.85618 40.4752 2.72616C42.2402 1.59615 43.9768 0.861637 45.6851 0.51557C47.4075 0.169502 49.1654 0 50.9659 0ZM46.9255 23.4196C48.7543 23.4196 50.3067 22.7628 51.5826 21.4632C52.8584 20.1567 53.7941 18.504 54.3753 16.5194C54.9637 14.5278 55.2543 13.1152 55.2543 12.2748C55.2543 10.4103 54.751 9.00482 53.7587 8.05136C52.7592 7.09791 51.4904 6.62472 49.9381 6.62472C48.2085 6.62472 46.72 7.22504 45.4724 8.41862C44.2249 9.6122 43.2892 11.2083 42.6584 13.1929C42.0346 15.1846 41.7156 16.8726 41.7156 18.278C41.7156 19.7541 42.1835 20.983 43.1049 21.9576C44.0193 22.9252 45.2952 23.4196 46.9255 23.4196Z" fill="#FF5800"/>
<path d="M111.826 8.89181L102.491 9.86645C101.64 7.57111 99.9104 6.4199 97.3019 6.4199C94.7501 6.4199 92.7229 7.64173 91.2272 10.0854C89.7387 12.5291 88.9873 15.1422 88.9873 17.9249C88.9873 19.5352 89.5402 20.8912 90.6531 21.9788C91.7589 23.0665 93.1694 23.6103 94.8848 23.6103H94.984C96.9333 23.6103 98.6487 23.1371 100.13 22.1836L100.825 19.0761H95.0266L96.4017 13.0093H110.72L107.644 26.6613C102.873 28.9072 98.1454 30.0302 93.4601 30.0302C89.2284 30.0302 85.8827 28.9425 83.4018 26.7814C80.928 24.6132 79.6875 21.5692 79.6875 17.6424C79.6875 14.3653 80.4743 11.3637 82.055 8.6305C83.6286 5.89727 85.8543 3.77143 88.718 2.26003C91.5817 0.755698 94.8706 0 98.5778 0C105.836 0 110.252 2.96629 111.826 8.89181Z" fill="white"/>
<path d="M125.079 0.496094L118.551 29.5375H109.988L116.545 0.496094H125.079Z" fill="white"/>
<path d="M136.18 8.04297C140.164 8.04297 143.056 8.99642 144.877 10.8963C146.692 12.7961 147.606 15.0208 147.606 17.5704C147.606 19.5126 147.089 21.4831 146.033 23.4959C144.991 25.5017 143.417 27.0908 141.319 28.2703C139.221 29.4497 136.634 30.0359 133.564 30.0359C129.666 30.0359 126.795 29.1248 124.938 27.3097C123.081 25.4947 122.152 23.2276 122.152 20.5226C122.152 18.3967 122.712 16.3415 123.818 14.364C124.924 12.3794 126.526 10.8327 128.638 9.71681C130.758 8.60091 133.267 8.04297 136.18 8.04297ZM134.117 24.5836C135.705 24.5836 136.967 23.8138 137.903 22.2741C138.838 20.7345 139.306 19.0324 139.306 17.1537C139.306 15.7906 138.952 14.8372 138.243 14.2934C137.527 13.7425 136.74 13.467 135.875 13.467C134.075 13.467 132.728 14.2439 131.828 15.7836C130.928 17.3303 130.481 18.9052 130.481 20.5155C130.481 21.6809 130.836 22.6414 131.537 23.4183C132.232 24.1951 133.09 24.5836 134.117 24.5836Z" fill="white"/>
<path d="M159.274 10.0235C160.252 9.31022 161.181 8.80171 162.067 8.49802C162.953 8.19433 164.073 8.04601 165.406 8.04601C167.965 8.04601 169.893 8.86528 171.19 10.5038C172.494 12.1423 173.153 14.254 173.153 16.846C173.153 20.1725 172.175 23.2024 170.219 25.9356C168.269 28.6688 165.689 30.0389 162.478 30.0389C159.168 30.0389 156.715 28.7253 155.106 26.091L154.291 29.5446H146.359L152.895 0.496094H161.415L159.274 10.0235ZM160.302 24.5866C161.528 24.5866 162.592 23.8592 163.492 22.3972C164.392 20.9353 164.846 19.099 164.846 16.8813C164.846 14.5083 163.846 13.3147 161.847 13.3147C160.401 13.3147 159.232 14.1057 158.353 15.6807C157.474 17.2627 157.034 19.0001 157.034 20.8999C157.034 22.1147 157.36 23.0329 158.027 23.6544C158.693 24.2759 159.451 24.5866 160.302 24.5866Z" fill="white"/>
<path d="M198.559 24.1489C197.311 26.2394 195.695 27.7367 193.689 28.6548C191.69 29.5729 189.181 30.032 186.169 30.032C181.788 30.032 178.669 29.0927 176.826 27.2281C174.976 25.3566 174.055 23.0683 174.055 20.3633C174.055 18.4846 174.487 16.719 175.352 15.0593C176.217 13.4066 177.386 12.0153 178.868 10.8924C180.342 9.7694 181.802 9.0137 183.241 8.6182C184.68 8.23682 186.36 8.03906 188.281 8.03906C192.428 8.03906 195.398 8.88657 197.198 10.5957C198.991 12.3049 199.892 14.3954 199.892 16.8744C199.892 17.6936 199.707 19.0991 199.332 21.0978H182.405C182.639 23.9087 183.978 25.3142 186.403 25.3142C188.047 25.3142 189.358 24.6786 190.337 23.4143L198.559 24.1489ZM191.449 17.1993C191.549 16.9097 191.598 16.5071 191.598 15.9916C191.598 14.918 191.258 14.1129 190.585 13.5691C189.911 13.0182 189.075 12.7428 188.082 12.7428C187.04 12.7428 186.076 13.1171 185.197 13.8586C184.319 14.6073 183.652 15.7232 183.192 17.1993H191.449Z" fill="white"/>
<path d="M78.8073 13.0312L77.3754 19.0768H64.9922L66.4169 13.0312H78.8073Z" fill="white"/>
<path d="M3.04033 39.902C2.24644 39.902 1.64394 40.5235 1.64394 41.3427C1.64394 42.1691 2.24644 42.7976 3.04033 42.7976C3.46563 42.7976 3.96181 42.5646 4.32331 42.1973L5.11011 43.0377C4.55723 43.6169 3.73498 43.9912 2.96945 43.9912C1.41711 43.9912 0.261719 42.8612 0.261719 41.3498C0.261719 39.8666 1.44546 38.7578 3.01907 38.7578C3.7846 38.7578 4.58558 39.0968 5.10302 39.6406L4.32331 40.5729C3.98307 40.1633 3.48689 39.902 3.04033 39.902Z" fill="white"/>
<path d="M10.2474 42.8547C10.8428 42.8547 11.2539 42.4521 11.2539 41.7812V38.8008H12.6007V41.7812C12.6007 43.1372 11.6863 43.9918 10.2403 43.9918C8.78722 43.9918 7.85156 43.1372 7.85156 41.7812V38.8008H9.19834V41.7812C9.19125 42.4451 9.63073 42.8547 10.2474 42.8547Z" fill="white"/>
<path d="M17.6582 39.8415C17.3321 39.8415 17.1194 39.9616 17.1194 40.1947C17.1194 41.0422 19.8343 40.5619 19.8343 42.4053C19.8343 43.4505 18.9057 43.9873 17.7574 43.9873C16.8997 43.9873 15.9995 43.6695 15.3828 43.168L15.9073 42.1228C16.439 42.5748 17.2399 42.8997 17.7716 42.8997C18.1685 42.8997 18.4166 42.7513 18.4166 42.483C18.4166 41.6143 15.7018 42.1369 15.7018 40.3218C15.7018 39.3613 16.5169 38.7539 17.7645 38.7539C18.5229 38.7539 19.2885 38.987 19.8272 39.333L19.3168 40.3924C18.7781 40.0817 18.0905 39.8415 17.6582 39.8415Z" fill="white"/>
<path d="M26.7512 38.8008V39.9096H25.206V43.9424H23.8592V39.9096H22.3281V38.8008H26.7512Z" fill="white"/>
<path d="M34.7902 41.3725C34.7902 42.8768 33.5993 43.9998 32.0045 43.9998C30.4096 43.9998 29.2188 42.8698 29.2188 41.3725C29.2188 39.8752 30.4096 38.7735 32.0045 38.7735C33.5993 38.7664 34.7902 39.8823 34.7902 41.3725ZM30.5939 41.3796C30.5939 42.213 31.246 42.8627 32.0115 42.8627C32.7842 42.8627 33.4008 42.22 33.4008 41.3796C33.4008 40.5391 32.7842 39.9105 32.0115 39.9105C31.246 39.9105 30.5939 40.5391 30.5939 41.3796Z" fill="white"/>
<path d="M39.186 38.8008L40.5541 41.7953L41.9221 38.8008H43.3965V43.9353H42.2056L42.1986 40.6794L41.0006 43.4197H40.1146L38.9167 40.6794V43.9353H37.7188V38.8008H39.186Z" fill="white"/>
<path d="M55.5634 41.3724C55.5634 42.9049 54.4363 43.9431 52.7706 43.9431H50.6016V38.8086H52.8202C54.4505 38.8016 55.5634 39.8468 55.5634 41.3724ZM54.1882 41.3865C54.1882 40.4966 53.607 39.8963 52.7918 39.8963H51.9483V42.8555H52.8627C53.6354 42.8555 54.1882 42.2622 54.1882 41.3865Z" fill="white"/>
<path d="M62.5531 38.8V39.8665H59.8312V40.827H62.2837V41.8935H59.8312V42.861H62.6239V43.9275H58.4844V38.793H62.5531V38.8Z" fill="white"/>
<path d="M66.6413 38.8008L67.9314 42.5157L69.2285 38.8008H70.6108L68.5977 43.9353H67.1942L65.1953 38.8008H66.6413Z" fill="white"/>
<path d="M77.4124 38.8V39.8665H74.6905V40.827H77.1431V41.8935H74.6905V42.861H77.4833V43.9275H73.3438V38.793H77.4124V38.8Z" fill="white"/>
<path d="M81.9093 38.8008V42.7912H84.0925V43.9353H80.5625V38.8008H81.9093Z" fill="white"/>
<path d="M92.212 41.3725C92.212 42.8768 91.0212 43.9998 89.4263 43.9998C87.8315 43.9998 86.6406 42.8698 86.6406 41.3725C86.6406 39.8752 87.8315 38.7735 89.4263 38.7735C91.0212 38.7664 92.212 39.8823 92.212 41.3725ZM88.0158 41.3796C88.0158 42.213 88.6679 42.8627 89.4334 42.8627C90.206 42.8627 90.8227 42.22 90.8227 41.3796C90.8227 40.5391 90.206 39.9105 89.4334 39.9105C88.6679 39.9105 88.0158 40.5391 88.0158 41.3796Z" fill="white"/>
<path d="M99.4779 40.6096C99.4779 41.8173 98.7195 42.5236 97.4011 42.5236H96.4796V43.9432H95.1328V38.8086H97.4011C98.7195 38.8016 99.4779 39.4655 99.4779 40.6096ZM98.1949 40.652C98.1949 40.1435 97.876 39.8751 97.3373 39.8751H96.4867V41.4501H97.3373C97.8831 41.4501 98.1949 41.1746 98.1949 40.652Z" fill="white"/>
<path d="M103.866 38.8008L105.234 41.7953L106.602 38.8008H108.076V43.9353H106.885L106.878 40.6794L105.68 43.4197H104.794L103.596 40.6794V43.9353H102.398V38.8008H103.866Z" fill="white"/>
<path d="M115.397 38.8V39.8665H112.675V40.827H115.127V41.8935H112.675V42.861H115.468V43.9275H111.328V38.793H115.397V38.8Z" fill="white"/>
<path d="M119.735 38.8008L122.074 41.8942V38.8008H123.321V43.9353H122.145L119.805 40.856V43.9353H118.551V38.8008H119.735Z" fill="white"/>
<path d="M130.552 38.8008V39.9096H129.007V43.9424H127.66V39.9096H126.129V38.8008H130.552Z" fill="white"/>
<path d="M139.178 39.8415C138.852 39.8415 138.639 39.9616 138.639 40.1947C138.639 41.0422 141.354 40.5619 141.354 42.4053C141.354 43.4505 140.425 43.9873 139.277 43.9873C138.419 43.9873 137.519 43.6695 136.902 43.168L137.427 42.1228C137.959 42.5748 138.759 42.8997 139.291 42.8997C139.688 42.8997 139.936 42.7513 139.936 42.483C139.936 41.6143 137.221 42.1369 137.221 40.3218C137.221 39.3613 138.036 38.7539 139.284 38.7539C140.042 38.7539 140.808 38.987 141.347 39.333L140.836 40.3924C140.298 40.0817 139.603 39.8415 139.178 39.8415Z" fill="white"/>
<path d="M145.636 38.8008V43.9353H144.289V38.8008H145.636Z" fill="white"/>
<path d="M150.082 38.8008L152.421 41.8942V38.8008H153.669V43.9353H152.492L150.153 40.856V43.9353H148.898V38.8008H150.082Z" fill="white"/>
<path d="M159.372 39.902C158.578 39.902 157.976 40.5235 157.976 41.3427C157.976 42.1691 158.578 42.7976 159.372 42.7976C159.798 42.7976 160.294 42.5646 160.655 42.1973L161.442 43.0377C160.889 43.6169 160.067 43.9912 159.301 43.9912C157.749 43.9912 156.594 42.8612 156.594 41.3498C156.594 39.8666 157.777 38.7578 159.351 38.7578C160.117 38.7578 160.918 39.0968 161.435 39.6406L160.655 40.5729C160.315 40.1633 159.819 39.902 159.372 39.902Z" fill="white"/>
<path d="M168.338 38.8V39.8665H165.616V40.827H168.069V41.8935H165.616V42.861H168.409V43.9275H164.27V38.793H168.338V38.8Z" fill="white"/>
<path d="M177.648 40.2921C177.648 40.0166 177.436 39.8542 177.06 39.8542C176.642 39.8542 176.11 40.1014 175.635 40.5039L175.125 39.5152C175.784 39.0349 176.507 38.7383 177.259 38.7383C178.301 38.7383 179.059 39.2821 179.059 40.0943C179.059 40.6522 178.634 41.2314 178.06 41.8105L177.003 42.8628H179.208V43.9434H175.281L175.274 43.0535L177.152 41.1325C177.436 40.8429 177.648 40.511 177.648 40.2921Z" fill="white"/>
<path d="M186.025 41.3725C186.025 43.0534 185.302 43.9786 184.012 43.9786C182.701 43.9786 181.992 43.0463 181.992 41.3725C181.992 39.6987 182.708 38.7735 184.012 38.7735C185.302 38.7664 186.025 39.6916 186.025 41.3725ZM183.275 41.3725C183.275 42.5449 183.488 43.0322 184.012 43.0322C184.53 43.0322 184.742 42.5449 184.742 41.3725C184.742 40.1931 184.53 39.7057 184.012 39.7057C183.488 39.7057 183.275 40.1931 183.275 41.3725Z" fill="white"/>
<path d="M192.822 41.3725C192.822 43.0534 192.099 43.9786 190.809 43.9786C189.498 43.9786 188.789 43.0463 188.789 41.3725C188.789 39.6987 189.505 38.7735 190.809 38.7735C192.099 38.7664 192.822 39.6916 192.822 41.3725ZM190.072 41.3725C190.072 42.5449 190.285 43.0322 190.809 43.0322C191.327 43.0322 191.539 42.5449 191.539 41.3725C191.539 40.1931 191.327 39.7057 190.809 39.7057C190.285 39.7057 190.072 40.1931 190.072 41.3725Z" fill="white"/>
<path d="M197.601 40.6582C198.813 40.6582 199.6 41.2939 199.6 42.212C199.6 43.2997 198.77 43.9989 197.495 43.9989C196.8 43.9989 196.006 43.7446 195.453 43.3562L195.992 42.318C196.396 42.7417 196.864 42.9607 197.339 42.9607C197.863 42.9607 198.154 42.7276 198.154 42.3109C198.154 41.9225 197.856 41.7035 197.346 41.7035C197.076 41.7035 196.226 41.7106 195.907 41.7318V38.8008H199.373V39.8884H197.147V40.6724C197.246 40.6582 197.502 40.6582 197.601 40.6582Z" fill="white"/>
<path d="M204.001 0.402344V1.0521H203.094V3.41101H202.307V1.0521H201.414V0.402344H204.001Z" fill="white"/>
<path d="M205.213 0.402344L206.014 2.15387L206.815 0.402344H207.673V3.41101H206.978V1.50411L206.277 3.10732H205.759L205.057 1.50411V3.41101H204.356V0.402344H205.213Z" fill="white"/>
</g>
<defs>
<clipPath id="clip0_2011_4">
<rect width="207.68" height="44" fill="white"/>
</clipPath>
</defs>
</svg>
