<?xml version="1.0" standalone="no"?>
<!DOCTYPE svg PUBLIC "-//W3C//DTD SVG 20010904//EN"
 "http://www.w3.org/TR/2001/REC-SVG-20010904/DTD/svg10.dtd">
<svg version="1.0" xmlns="http://www.w3.org/2000/svg"
 width="512.000000pt" height="512.000000pt" viewBox="0 0 512.000000 512.000000"
 preserveAspectRatio="xMidYMid meet">
<metadata>
Created by potrace 1.10, written by Peter Selinger 2001-2011
</metadata>
<g transform="translate(0.000000,512.000000) scale(0.050000,-0.050000)"
 stroke="none">
<path d="M4167 9742 c-905 -259 -1232 -1369 -711 -2412 730 -1463 2323 -725
2331 1080 4 908 -798 1567 -1620 1332z m-335 -841 c460 -175 815 -176 1314 -6
174 59 199 54 260 -51 48 -82 74 -350 54 -564 -18 -201 -23 -190 67 -147 100
48 103 37 54 -207 -313 -1562 -1849 -1562 -2162 0 -49 244 -46 255 54 207 89
-43 83 -57 65 157 -31 352 42 650 160 650 18 0 78 -18 134 -39z"/>
<path d="M3250 6687 c-600 -129 -1104 -602 -1281 -1206 -41 -140 -48 -150
-119 -175 -200 -69 -329 -231 -330 -413 0 -136 431 -2618 467 -2688 45 -86
180 -199 267 -224 106 -29 4386 -29 4492 0 87 25 222 138 267 224 36 70 467
2552 467 2688 -1 182 -130 344 -330 413 -71 25 -78 35 -119 175 -191 651 -730
1122 -1406 1229 -71 11 -85 8 -85 -20 0 -114 -733 -1350 -801 -1350 -6 0 -22
150 -35 334 l-23 333 89 88 c57 57 93 112 102 157 17 91 11 95 -94 55 -120
-45 -436 -45 -556 0 -105 40 -111 36 -94 -55 9 -45 45 -100 101 -156 l89 -87
-22 -335 c-13 -184 -28 -334 -35 -334 -67 0 -801 1236 -801 1349 0 37 -27 37
-210 -2z m3932 -1533 c62 -33 102 -73 138 -140 l50 -93 -115 -676 c-95 -558
-280 -1636 -326 -1901 -15 -89 -135 -218 -226 -243 -100 -28 -4306 -28 -4406
0 -91 25 -211 154 -226 243 -43 248 -230 1337 -325 1896 l-115 671 50 99 c37
74 71 110 137 144 l88 46 2594 0 2594 0 88 -46z"/>
<path d="M4395 3858 c-101 -59 -120 -210 -37 -302 156 -175 420 15 312 224
-49 94 -182 132 -275 78z"/>
<path d="M2144 1856 c-33 -33 -30 -106 5 -135 42 -35 4661 -34 4703 0 34 29
37 102 4 135 -35 35 -4677 35 -4712 0z"/>
</g>
</svg>
