<?xml version="1.0" standalone="no"?>
<!DOCTYPE svg PUBLIC "-//W3C//DTD SVG 20010904//EN"
 "http://www.w3.org/TR/2001/REC-SVG-20010904/DTD/svg10.dtd">
<svg version="1.0" xmlns="http://www.w3.org/2000/svg"
 width="300.000000pt" height="300.000000pt" viewBox="0 0 300.000000 300.000000"
 preserveAspectRatio="xMidYMid meet">
<metadata>
Created by potrace 1.10, written by Peter Selinger 2001-2011
</metadata>
<g transform="translate(0.000000,300.000000) scale(0.100000,-0.100000)"
fill="#000000" stroke="none">
<path d="M1391 2835 c-143 -40 -256 -155 -303 -308 -18 -60 -20 -85 -15 -176
11 -196 74 -357 182 -466 76 -77 138 -108 230 -113 104 -6 170 22 255 108 122
122 182 285 184 500 0 108 -3 133 -22 182 -48 119 -153 224 -264 264 -63 23
-182 27 -247 9z m272 -67 c107 -49 179 -140 212 -265 16 -63 20 -153 6 -153
-13 0 -21 38 -21 100 0 63 -22 114 -61 143 -26 19 -27 19 -110 -8 -52 -17
-116 -29 -169 -32 -74 -4 -99 -1 -190 26 -95 28 -106 29 -127 16 -39 -26 -55
-62 -60 -133 -5 -85 -11 -112 -23 -112 -27 0 1 173 40 249 47 92 161 180 262
201 72 15 166 2 241 -32z m-356 -225 c67 -24 94 -27 193 -27 100 0 125 3 194
27 60 21 81 25 92 16 25 -20 36 -83 33 -182 l-4 -96 22 14 c12 8 27 15 32 15
5 0 0 -39 -10 -87 -50 -233 -194 -387 -359 -387 -176 0 -320 167 -369 427 -9
51 -4 56 32 32 l22 -14 0 117 c0 96 3 123 18 145 9 15 20 27 22 27 3 0 40 -12
82 -27z"/>
<path d="M1076 1814 c-159 -38 -304 -153 -376 -297 -22 -44 -43 -97 -46 -117
-5 -32 -11 -39 -34 -44 -64 -12 -132 -110 -116 -164 3 -9 37 -204 76 -432 44
-255 78 -426 88 -444 9 -16 30 -38 45 -50 28 -21 32 -21 787 -21 755 0 759 0
787 21 15 12 36 34 45 50 10 18 46 199 92 465 61 356 73 443 65 472 -11 41
-68 95 -109 103 -23 5 -29 12 -34 44 -3 20 -24 73 -46 117 -72 144 -220 260
-380 297 -68 16 -80 14 -80 -12 -1 -9 -18 -49 -38 -89 -41 -78 -213 -352 -223
-353 -3 0 -9 52 -13 116 -6 114 -6 116 18 135 23 18 53 75 44 85 -3 2 -17 0
-32 -6 -35 -13 -157 -13 -192 0 -15 6 -29 8 -32 6 -9 -10 21 -67 44 -85 24
-19 24 -21 18 -135 -4 -64 -10 -116 -13 -116 -7 1 -174 261 -213 331 -14 27
-34 70 -44 94 -9 25 -19 45 -23 44 -3 0 -32 -7 -65 -15z m83 -114 c23 -43 77
-134 121 -200 44 -66 80 -125 80 -130 0 -7 -118 -9 -332 -8 l-333 3 1 30 c2
42 46 133 95 194 71 89 216 175 320 190 4 1 25 -35 48 -79z m889 21 c86 -43
171 -131 216 -222 20 -41 38 -87 39 -104 l2 -30 -332 -3 c-213 -1 -333 1 -333
8 0 5 33 60 74 122 41 62 93 149 117 193 24 44 47 83 52 86 14 10 95 -15 165
-50z m-519 -118 c-9 -25 -6 -127 7 -210 5 -32 4 -33 -30 -33 -19 0 -37 3 -39
8 -2 4 0 52 5 107 5 61 4 111 -1 128 -10 26 -9 27 29 27 39 0 39 0 29 -27z
m887 -317 c25 -25 34 -43 34 -68 0 -28 -41 -279 -126 -768 -20 -112 -25 -125
-67 -150 -31 -19 -57 -20 -757 -20 -700 0 -726 1 -757 20 -42 25 -47 38 -67
150 -85 489 -126 740 -126 768 0 25 9 43 34 68 l34 34 882 0 882 0 34 -34z"/>
<path d="M1451 854 c-12 -15 -21 -32 -21 -39 0 -27 41 -65 70 -65 29 0 70 38
70 65 0 27 -41 65 -70 65 -19 0 -36 -9 -49 -26z"/>
<path d="M707 198 c-2 -7 0 -21 5 -30 8 -17 56 -18 787 -18 823 0 812 -1 795
44 -6 15 -76 16 -794 16 -622 0 -789 -3 -793 -12z"/>
</g>
</svg>
