<svg width="65" height="31" viewBox="0 0 65 31" fill="none" xmlns="http://www.w3.org/2000/svg">
<path d="M32.1454 8.89181L22.8101 9.86645C21.9525 7.57111 20.2229 6.4199 17.6215 6.4199C15.0697 6.4199 13.0496 7.64173 11.5539 10.0854C10.0512 12.5291 9.31402 15.1422 9.31402 17.9249C9.31402 19.5352 9.86691 20.8912 10.9727 21.9788C12.0855 23.0665 13.4961 23.6103 15.2115 23.6103H15.2965C17.2458 23.6103 18.9612 23.1371 20.4426 22.1836L21.1302 19.0761H15.332L16.7142 13.0093H31.0255L27.9492 26.6613C23.1787 28.9072 18.4438 30.0302 13.7584 30.0302C9.53376 30.0302 6.181 28.9425 3.70718 26.7814C1.24045 24.6202 0 21.5762 0 17.6494C0 14.3795 0.793889 11.3708 2.36749 8.63756C3.94109 5.90433 6.16682 3.77849 9.03758 2.26709C11.8942 0.755698 15.1902 0 18.8974 0C26.1558 0 30.5647 2.96629 32.1454 8.89181Z" fill="#FF5800"/>
<path d="M50.9659 0C55.6371 0 59.0749 1.18652 61.2652 3.55249C63.4555 5.91846 64.5541 8.84238 64.5541 12.3031C64.5541 13.6379 64.3486 15.1563 63.9445 16.8655C63.5334 18.5746 62.7608 20.3474 61.5983 22.1766C60.4429 24.0058 58.9402 25.5596 57.0902 26.8379C55.2401 28.1092 53.461 28.9637 51.7598 29.3875C50.0586 29.8183 48.2511 30.0302 46.3372 30.0302C41.9566 30.0302 38.5401 28.9779 36.0804 26.8803C33.6208 24.7827 32.3945 21.8376 32.3945 18.0449C32.3945 16.0674 32.6993 14.1323 33.3018 12.2536C33.9114 10.375 34.8116 8.59519 36.0237 6.92135C37.2358 5.25458 38.7173 3.85618 40.4752 2.72616C42.2402 1.59615 43.9768 0.861637 45.6851 0.51557C47.4075 0.169502 49.1654 0 50.9659 0ZM46.9255 23.4196C48.7543 23.4196 50.3067 22.7628 51.5826 21.4632C52.8584 20.1567 53.7941 18.504 54.3753 16.5194C54.9637 14.5278 55.2543 13.1152 55.2543 12.2748C55.2543 10.4103 54.751 9.00482 53.7587 8.05136C52.7592 7.09791 51.4904 6.62472 49.9381 6.62472C48.2085 6.62472 46.72 7.22504 45.4724 8.41862C44.2249 9.6122 43.2892 11.2083 42.6584 13.1929C42.0346 15.1846 41.7156 16.8726 41.7156 18.278C41.7156 19.7541 42.1835 20.983 43.1049 21.9576C44.0193 22.9252 45.2952 23.4196 46.9255 23.4196Z" fill="#FF5800"/>
</svg>
